<?xml version="1.0" encoding="utf-8"?>
<!-- Generator: Adobe Illustrator 27.5.0, SVG Export Plug-In . SVG Version: 6.00 Build 0)  -->
<svg version="1.1" id="Layer_1" xmlns="http://www.w3.org/2000/svg" xmlns:xlink="http://www.w3.org/1999/xlink" x="0px" y="0px"
	 viewBox="0 0 3873 3873" style="enable-background:new 0 0 3873 3873;" xml:space="preserve">
<g id="Layer_x0020_1">
	
		<linearGradient id="SVGID_1_" gradientUnits="userSpaceOnUse" x1="2651.2473" y1="473.999" x2="2689.0693" y2="511.8211" gradientTransform="matrix(72 0 0 72 -190314.9063 -33553.0313)">
		<stop  offset="0" style="stop-color:#F84D9A"/>
		<stop  offset="1" style="stop-color:#A10556"/>
	</linearGradient>
	<path style="fill-rule:evenodd;clip-rule:evenodd;fill:url(#SVGID_1_);" d="M3827.6,1936.5c0-522.2-211.7-995-553.9-1337.2
		s-815-553.9-1337.2-553.9s-995,211.7-1337.2,553.9s-553.9,815-553.9,1337.2s211.7,995,553.9,1337.2s815,553.9,1337.2,553.9
		s995-211.7,1337.2-553.9S3827.6,2458.7,3827.6,1936.5z"/>
	<g id="_509874432">
		<path id="_509875248" style="fill-rule:evenodd;clip-rule:evenodd;fill:#FFFFFF;" d="M778.3,952.3V1217h2316.3V952.3
			c0-35.1-28.6-63.7-63.8-63.7H842.1C806.9,888.6,778.3,917.2,778.3,952.3L778.3,952.3z M2409.3,1139.1c-47.6,0-86.3-38.7-86.3-86.3
			c0-47.6,38.8-86.3,86.3-86.3c47.6,0,86.3,38.7,86.3,86.3C2495.6,1100.3,2456.9,1139.1,2409.3,1139.1z M2546.3,1052.7
			c0-47.6,38.7-86.3,86.3-86.3s86.3,38.7,86.3,86.3s-38.7,86.3-86.3,86.3C2585.1,1139.1,2546.3,1100.3,2546.3,1052.7z
			 M2769.7,1052.7c0-47.6,38.7-86.3,86.3-86.3s86.3,38.7,86.3,86.3s-38.8,86.3-86.3,86.3C2808.4,1139.1,2769.7,1100.3,2769.7,1052.7
			z"/>
		<path id="_509875392" style="fill-rule:evenodd;clip-rule:evenodd;fill:#FFFFFF;" d="M2856,1022c-16.9,0-30.7,13.8-30.7,30.7
			c0,16.9,13.8,30.7,30.7,30.7s30.7-13.8,30.7-30.7C2886.8,1035.8,2872.9,1022.1,2856,1022L2856,1022z"/>
		<path id="_509875920" style="fill-rule:evenodd;clip-rule:evenodd;fill:#FFFFFF;" d="M2601.9,1052.7c0,16.9,13.8,30.7,30.7,30.7
			s30.7-13.8,30.7-30.7c0-16.9-13.8-30.7-30.7-30.7C2615.7,1022.1,2601.9,1035.8,2601.9,1052.7z"/>
		<path id="_509875872" style="fill-rule:evenodd;clip-rule:evenodd;fill:#FFFFFF;" d="M2378.6,1052.7c0,16.9,13.8,30.7,30.7,30.7
			s30.7-13.8,30.7-30.7c0-16.9-13.8-30.7-30.7-30.7C2392.4,1022.1,2378.6,1035.8,2378.6,1052.7z"/>
		<path id="_509875608" style="fill-rule:evenodd;clip-rule:evenodd;fill:#FFFFFF;" d="M1703.4,1775.7
			c-1.5,109,46,226.7,125.4,288.5c4.1,1.7,7.8,4.3,10.7,7.8c28.7,19.8,61.3,32.5,97,35.2c35.7-2.7,68.2-15.4,97-35.2
			c2.9-3.5,6.6-6.2,10.7-7.8c79.4-61.8,126.9-179.5,125.4-288.5c-0.8-56.4-19.8-240.6-233-249.5
			C1723.3,1535,1704.2,1719.3,1703.4,1775.7L1703.4,1775.7z"/>
		<path id="_509875464" style="fill-rule:evenodd;clip-rule:evenodd;fill:#FFFFFF;" d="M2225.1,1774.9
			c1.3,89.5-25.9,182.2-74.5,254.4c-21.7,32.2-46.7,59.1-74.3,80.2c-8.5,21.1-24.6,82.8,48.3,134.6h38.5
			c156,0,282.9,126.9,282.9,282.9v61.1h584.9c35.2,0,63.8-28.6,63.8-63.7V1272.5H778.3v1251.8c0,35.1,28.6,63.7,63.7,63.7h584.9v-61
			c0-156,126.9-282.9,282.9-282.9h38.4c73.2-52,56.6-114.4,48.5-134.6c-27.6-21.1-52.7-48-74.4-80.3
			c-48.6-72.2-75.8-164.9-74.6-254.4c2-141.8,78.5-296.2,287.6-304.3c0.7,0,1.4,0,2.1,0C2146.7,1478.6,2223.2,1633.1,2225.1,1774.9
			L2225.1,1774.9z"/>
		<path id="_509874528" style="fill-rule:evenodd;clip-rule:evenodd;fill:#FFFFFF;" d="M1859.8,2145.7c0.6,30.6-7.4,65.4-32,98.4
			h217.4c-24.6-33-32.6-67.8-32-98.4c-24,9.6-49,15.4-74.8,17.1c-0.6,0-1.3,0-1.8,0c-0.6,0-1.2,0-1.8,0
			C1908.9,2161.1,1883.8,2155.3,1859.8,2145.7L1859.8,2145.7z"/>
		<path id="_509874984" style="fill-rule:evenodd;clip-rule:evenodd;fill:#FFFFFF;" d="M1709.8,2299.7
			c-125.3,0-227.3,102-227.3,227.3v88.9v368.5h150.9v-286.6c0-15.3,12.4-27.8,27.8-27.8s27.8,12.5,27.8,27.8v286.6h494.8v-286.6
			c0-15.3,12.4-27.8,27.8-27.8c15.4,0,27.8,12.5,27.8,27.8v286.6h150.9v-368.2v-0.2v-0.2V2527c0-125.3-102-227.3-227.3-227.3h-44
			c-0.9,0.1-1.9,0.1-2.8,0.1c-0.9,0-1.9,0-2.8-0.1h-353.9c-0.9,0.1-1.9,0.1-2.8,0.1c-1,0-1.9,0-2.8-0.1H1709.8L1709.8,2299.7z"/>
	</g>
</g>
<rect style="fill:none;" width="3873" height="3873"/>
</svg>
